<svg width="27" height="27" viewBox="0 0 27 27" fill="none" xmlns="http://www.w3.org/2000/svg">
<path d="M17.1 0V19.8C17.1 21.046 16.7305 22.2641 16.0383 23.3001C15.346 24.3361 14.3621 25.1436 13.2109 25.6204C12.0597 26.0973 10.793 26.222 9.57093 25.9789C8.34885 25.7359 7.2263 25.1358 6.34523 24.2548C5.46416 23.3737 4.86414 22.2512 4.62105 21.0291C4.37796 19.807 4.50273 18.5403 4.97956 17.3891C5.45639 16.2379 6.26388 15.254 7.29991 14.5617C8.33594 13.8695 9.55398 13.5 10.8 13.5M25.2 9.9C23.0517 9.9 20.9915 9.04661 19.4724 7.52757C17.9534 6.00852 17.1 3.94825 17.1 1.8" stroke="white"/>
</svg>
