<svg width="30" height="24" viewBox="0 0 30 24" fill="none" xmlns="http://www.w3.org/2000/svg">
<path d="M19.8141 11.3023L13.2699 6.83722C13.1466 6.75305 13.0033 6.70473 12.8553 6.69742C12.7072 6.69011 12.5601 6.72409 12.4295 6.79573C12.2988 6.86737 12.1897 6.97398 12.1137 7.10416C12.0376 7.23435 11.9976 7.38323 11.9978 7.53489V16.4651C11.9976 16.6168 12.0376 16.7657 12.1137 16.8958C12.1897 17.026 12.2988 17.1326 12.4295 17.2043C12.5601 17.2759 12.7072 17.3099 12.8553 17.3026C13.0033 17.2953 13.1466 17.247 13.2699 17.1628L19.8141 12.6977C19.9266 12.6213 20.0189 12.5176 20.0827 12.3959C20.1466 12.2742 20.18 12.1382 20.18 12C20.18 11.8618 20.1466 11.7258 20.0827 11.6041C20.0189 11.4824 19.9266 11.3787 19.8141 11.3023ZM13.6339 14.9009V9.09908L17.8849 12L13.6339 14.9009ZM29.2311 3.907C29.1127 3.43635 28.8868 3.00119 28.5721 2.63732C28.2573 2.27345 27.8626 1.99126 27.4205 1.81398C22.7686 -0.0292745 15.3068 2.78233e-05 14.9973 2.78233e-05C14.6878 2.78233e-05 7.22596 -0.0292745 2.56862 1.81398C2.12751 1.99199 1.73391 2.2745 1.42013 2.63832C1.10635 3.00215 0.881316 3.43693 0.763498 3.907C0.415834 5.28699 0 7.81396 0 12C0 16.186 0.415834 18.713 0.763498 20.093C0.881864 20.5636 1.10772 20.9988 1.42249 21.3627C1.73726 21.7265 2.13195 22.0087 2.57408 22.186C7.22596 24.0293 14.6864 24 14.9973 24H15.0941C16.0362 24 23.0017 23.9386 27.4259 22.186C27.8681 22.0087 28.2627 21.7265 28.5775 21.3627C28.8923 20.9988 29.1181 20.5636 29.2365 20.093C29.5842 18.7158 30 16.1958 30 12C30 7.8042 29.5855 5.28699 29.2311 3.907ZM27.6468 19.6744C27.5943 19.8889 27.4927 20.0875 27.3505 20.2539C27.2083 20.4203 27.0295 20.5498 26.8288 20.6316C22.4659 22.3521 15.0764 22.3256 14.9973 22.3256C14.9182 22.3256 7.53818 22.3535 3.16988 20.6274C2.96918 20.5456 2.79035 20.4162 2.64812 20.2497C2.50589 20.0833 2.40435 19.8847 2.35185 19.6702C2.02327 18.3879 1.63607 16.0158 1.63607 12C1.63607 7.9842 2.02327 5.61211 2.34776 4.3256C2.40026 4.11113 2.5018 3.9125 2.64403 3.74608C2.78626 3.57965 2.96509 3.4502 3.16579 3.36839C7.37048 1.71072 14.3878 1.67444 14.9646 1.67444H14.9973C15.0709 1.67444 22.4564 1.64654 26.8247 3.37258C27.0254 3.45439 27.2042 3.58384 27.3464 3.75026C27.4887 3.91669 27.5902 4.11532 27.6427 4.32979C27.9672 5.61211 28.3544 7.9842 28.3544 12.0042C28.3544 16.0242 27.9713 18.3879 27.6468 19.6744Z" fill="white"/>
</svg>
